
        <svg xmlns="http://www.w3.org/2000/svg" xmlns:xlink="http://www.w3.org/1999/xlink" version="1.1" width="3159.792760809092" 
        height="832.0992942106341" viewBox="0 0 3159.792760809092 832.0992942106341">
			<rect fill="#111111" width="3159.792760809092" height="832.0992942106341"/>
			<g transform="scale(7.989638040454608) translate(10, 10)">
				<defs id="SvgjsDefs1942"></defs><g id="SvgjsG1943" featureKey="5TMTKC-0" transform="matrix(0.9825701617251283,0,0,0.9825701617251283,-4.912850808625642,-7.054853592517075)" fill="#c8e7ed"><path xmlns="http://www.w3.org/2000/svg" d="M6.5,45.96c-0.829,0-1.5,0.671-1.5,1.5v5.079c0,0.829,0.671,1.5,1.5,1.5S8,53.368,8,52.54V47.46  C8,46.632,7.329,45.96,6.5,45.96z"></path><path xmlns="http://www.w3.org/2000/svg" d="M12.3,41.522c-0.829,0-1.5,0.671-1.5,1.5v13.955c0,0.829,0.671,1.5,1.5,1.5s1.5-0.671,1.5-1.5V43.022  C13.8,42.194,13.128,41.522,12.3,41.522z"></path><path xmlns="http://www.w3.org/2000/svg" d="M18.1,44.622c-0.829,0-1.5,0.671-1.5,1.5v7.756c0,0.829,0.671,1.5,1.5,1.5s1.5-0.671,1.5-1.5v-7.756  C19.6,45.293,18.929,44.622,18.1,44.622z"></path><path xmlns="http://www.w3.org/2000/svg" d="M23.9,34.843c-0.829,0-1.5,0.671-1.5,1.5v27.313c0,0.829,0.671,1.5,1.5,1.5s1.5-0.671,1.5-1.5V36.343  C25.4,35.515,24.729,34.843,23.9,34.843z"></path><path xmlns="http://www.w3.org/2000/svg" d="M29.7,28.604c-0.829,0-1.5,0.671-1.5,1.5v39.791c0,0.829,0.671,1.5,1.5,1.5s1.5-0.671,1.5-1.5V30.104  C31.2,29.276,30.529,28.604,29.7,28.604z"></path><path xmlns="http://www.w3.org/2000/svg" d="M35.5,7.18c-0.829,0-1.5,0.671-1.5,1.5v82.64c0,0.829,0.671,1.5,1.5,1.5s1.5-0.671,1.5-1.5V8.68  C37,7.852,36.329,7.18,35.5,7.18z"></path><path xmlns="http://www.w3.org/2000/svg" d="M41.3,13.768c-0.829,0-1.5,0.671-1.5,1.5v69.465c0,0.829,0.671,1.5,1.5,1.5s1.5-0.671,1.5-1.5V15.268  C42.8,14.439,42.128,13.768,41.3,13.768z"></path><path xmlns="http://www.w3.org/2000/svg" d="M47.1,20.849c-0.829,0-1.5,0.671-1.5,1.5v55.303c0,0.829,0.671,1.5,1.5,1.5s1.5-0.671,1.5-1.5V22.349  C48.6,21.52,47.929,20.849,47.1,20.849z"></path><path xmlns="http://www.w3.org/2000/svg" d="M52.9,30.88c-0.829,0-1.5,0.671-1.5,1.5v35.24c0,0.829,0.671,1.5,1.5,1.5s1.5-0.671,1.5-1.5V32.38  C54.4,31.551,53.729,30.88,52.9,30.88z"></path><path xmlns="http://www.w3.org/2000/svg" d="M58.7,40.744c-0.829,0-1.5,0.671-1.5,1.5v15.512c0,0.829,0.671,1.5,1.5,1.5s1.5-0.671,1.5-1.5V42.244  C60.2,41.416,59.529,40.744,58.7,40.744z"></path><path xmlns="http://www.w3.org/2000/svg" d="M64.5,33.457c-0.829,0-1.5,0.671-1.5,1.5v30.087c0,0.829,0.671,1.5,1.5,1.5s1.5-0.671,1.5-1.5V34.957  C66,34.128,65.329,33.457,64.5,33.457z"></path><path xmlns="http://www.w3.org/2000/svg" d="M70.3,39.529c-0.829,0-1.5,0.671-1.5,1.5v17.942c0,0.829,0.671,1.5,1.5,1.5s1.5-0.671,1.5-1.5V41.029  C71.8,40.2,71.128,39.529,70.3,39.529z"></path><path xmlns="http://www.w3.org/2000/svg" d="M76.1,43.442c-0.829,0-1.5,0.671-1.5,1.5v10.116c0,0.829,0.671,1.5,1.5,1.5s1.5-0.671,1.5-1.5V44.942  C77.6,44.113,76.929,43.442,76.1,43.442z"></path><path xmlns="http://www.w3.org/2000/svg" d="M81.9,41.656c-0.829,0-1.5,0.671-1.5,1.5v13.688c0,0.829,0.671,1.5,1.5,1.5s1.5-0.671,1.5-1.5V43.156  C83.4,42.328,82.729,41.656,81.9,41.656z"></path><path xmlns="http://www.w3.org/2000/svg" d="M87.7,45.96c-0.829,0-1.5,0.671-1.5,1.5v5.079c0,0.829,0.671,1.5,1.5,1.5s1.5-0.671,1.5-1.5V47.46  C89.2,46.632,88.529,45.96,87.7,45.96z"></path><path xmlns="http://www.w3.org/2000/svg" d="M93.5,46.982c-0.829,0-1.5,0.671-1.5,1.5v3.035c0,0.829,0.671,1.5,1.5,1.5s1.5-0.671,1.5-1.5v-3.035  C95,47.654,94.329,46.982,93.5,46.982z"></path></g><g id="SvgjsG1944" featureKey="sloganFeature-0" transform="matrix(1.154451155371134,0,0,1.154451155371134,107.99999944951479,50.38941182006229)" fill="#ffffc2"><path d="M9.26 20 l0 -12.72 l-3.62 8.66 l-1.12 -0.02 l-3.54 -8.66 l0 12.74 l-0.98 0 l0 -15 l1.04 0 l4.06 9.76 l4.08 -9.76 l1.06 0 l0 15 l-0.98 0 z M15.68 20.18 c-1.2267 0 -2.1768 -0.33336 -2.85 -1 s-1.01 -1.6533 -1.01 -2.96 l0 -11.22 l1.08 0 l0 11.16 c0 0.32 0.04334 0.65666 0.13 1.01 s0.23666 0.67334 0.45 0.96 s0.49668 0.52332 0.85002 0.70998 s0.79 0.28 1.31 0.28 c0.57334 0 1.0467 -0.08334 1.42 -0.25 s0.67334 -0.39666 0.9 -0.69 s0.38666 -0.64 0.48 -1.04 s0.14 -0.82666 0.14 -1.28 l0 -10.86 l1.06 0 l0 11.22 c0 1.3333 -0.32334 2.3266 -0.97 2.98 s-1.6433 0.98 -2.99 0.98 z M25.4 20.18 c-0.65334 0 -1.2335 -0.086738 -1.7401 -0.26008 s-0.93332 -0.45 -1.28 -0.83 s-0.60332 -0.87666 -0.76998 -1.49 s-0.23666 -1.3533 -0.21 -2.22 l1.2 0 c0 0.42666 0.02 0.87 0.06 1.33 s0.14666 0.88 0.32 1.26 s0.43668 0.69 0.79002 0.93 s0.84334 0.36 1.47 0.36 c0.53334 0 0.98668 -0.08 1.36 -0.24 s0.67668 -0.37334 0.91002 -0.64 s0.39668 -0.58 0.49002 -0.94 s0.14 -0.73334 0.14 -1.12 c0 -0.45334 -0.08334 -0.85 -0.25 -1.19 s-0.38666 -0.64334 -0.66 -0.91 s-0.59334 -0.50332 -0.96 -0.70998 s-0.75 -0.39 -1.15 -0.55 c-0.64 -0.25334 -1.2 -0.50334 -1.68 -0.75 s-0.87334 -0.52332 -1.18 -0.82998 s-0.53666 -0.66332 -0.69 -1.07 s-0.23 -0.90332 -0.23 -1.49 c0 -1.3333 0.35 -2.3266 1.05 -2.98 s1.7033 -0.98 3.01 -0.98 c1.1333 0 2.03 0.33 2.69 0.99 s0.99 1.65 0.99 2.97 l0 1.1 l-1.12 0 l0 -1.2 c0 -0.41334 -0.05 -0.79668 -0.15 -1.15 s-0.25666 -0.66334 -0.47 -0.93 s-0.48334 -0.47666 -0.81 -0.63 s-0.71666 -0.23 -1.17 -0.23 c-1.0667 0 -1.83 0.28 -2.29 0.84 s-0.67 1.3133 -0.63 2.26 c0.01334 0.41334 0.09 0.76668 0.23 1.06 s0.32666 0.55 0.56 0.77 s0.51334 0.41666 0.84 0.59 s0.69 0.34668 1.09 0.52002 c0.46666 0.2 0.93 0.41334 1.39 0.64 s0.89 0.50666 1.29 0.84 c0.4 0.34666 0.73 0.75 0.99 1.21 s0.39 1.03 0.39 1.71 c0 1.32 -0.33666 2.31 -1.01 2.97 s-1.61 0.99 -2.81 0.99 z M30.76 20 l0 -15 l1.28 0 l0 15 l-1.28 0 z M40.800000000000004 16.22 c-0.01334 0.66666 -0.076582 1.25 -0.18992 1.75 s-0.30668 0.91334 -0.58002 1.24 s-0.63334 0.57 -1.08 0.73 s-1.01 0.24 -1.69 0.24 c-1.1733 0 -2.0266 -0.32666 -2.56 -0.98 s-0.8 -1.6467 -0.8 -2.98 l0 -7.4 c0 -1.3333 0.27 -2.3266 0.81 -2.98 s1.4633 -0.98 2.77 -0.98 c1.1733 0 2.0134 0.32666 2.52 0.98 s0.77332 1.6467 0.79998 2.98 l0.02 0.92 l-0.92 0 l-0.02 -1.16 c0 -0.33334 -0.03334 -0.67 -0.1 -1.01 s-0.18666 -0.65 -0.36 -0.93 s-0.41668 -0.50666 -0.73002 -0.68 s-0.73 -0.26 -1.25 -0.26 c-0.50666 0 -0.93 0.08 -1.27 0.24 s-0.61 0.38 -0.81 0.66 s-0.33666 0.61 -0.41 0.99 s-0.11 0.79 -0.11 1.23 l0.04 7.5 c0 0.92 0.17 1.64 0.51 2.16 s0.96334 0.78 1.87 0.78 c0.52 0 0.95 -0.07 1.29 -0.21 s0.60666 -0.33666 0.8 -0.59 s0.33 -0.56 0.41 -0.92 s0.12 -0.75334 0.12 -1.18 l0.02 -1.3 l0.92 0 z M54.24 20 l-1.1 -4.42 l-4.88 0 l-1.1 4.42 l-1 0 l4.14 -15 l0.86 0 l4.12 15 l-1.04 0 z M50.760000000000005 5.9399999999999995 l-2.26 8.68 l4.38 0 z M58.7 6.1 l0 13.9 l-1.16 0 l0 -13.9 l-3.26 0 l0 -1.1 l7.68 0 l0 1.1 l-3.26 0 z M70.94000000000001 6.1 l0 13.9 l-1.16 0 l0 -13.9 l-3.26 0 l0 -1.1 l7.68 0 l0 1.1 l-3.26 0 z M81.68000000000002 20 l-0.02 -6.98 l-5.48 0 l0.02 6.98 l-1.16 0 l0 -15 l1.16 0 l-0.02 6.96 l5.48 0 l0.02 -6.96 l1.18 0 l0 15 l-1.18 0 z M84.62000000000002 20 l0 -15 l7.36 0 l0 1.16 l-6.32 0 l0 5.7 l6.26 0 l0 0.92 l-6.26 0 l0 6.06 l6.46 0 l0 1.16 l-7.5 0 z M101.20000000000003 6.1 l0 13.9 l-1.16 0 l0 -13.9 l-3.26 0 l0 -1.1 l7.68 0 l0 1.1 l-3.26 0 z M105.76000000000003 20 l0 -15 l1.28 0 l0 15 l-1.28 0 z M112.30000000000003 14.36 l-2.16 0 l0 5.64 l-1.16 0 l0 -15 l3.62 0 c1.32 0 2.3566 0.40334 3.11 1.21 s1.13 1.9767 1.13 3.51 c0 0.68 -0.11 1.3033 -0.33 1.87 s-0.53 1.0567 -0.93 1.47 s-0.87666 0.73334 -1.43 0.96 s-1.17 0.34 -1.85 0.34 z M112.20000000000003 6.02 l-2.06 0.000019531 l0 7.24 l1.86 0 c0.68 0 1.2533 -0.09666 1.72 -0.29 s0.84332 -0.45334 1.13 -0.78 s0.49332 -0.70666 0.61998 -1.14 s0.19 -0.89 0.19 -1.37 c0 -0.49334 -0.04666 -0.96334 -0.14 -1.41 s-0.26668 -0.83666 -0.52002 -1.17 s-0.60668 -0.59668 -1.06 -0.79002 s-1.0333 -0.29 -1.74 -0.29 z M125.22000000000004 20.18 c-2.52 0 -3.78 -1.32 -3.78 -3.96 l0 -7.4 c0 -1.3333 0.31666 -2.3266 0.95 -2.98 s1.6567 -0.98 3.07 -0.98 c1.2933 0 2.25 0.33 2.87 0.99 s0.93 1.6367 0.93 2.93 l0 7.44 c0 0.66666 -0.07 1.2467 -0.21 1.74 s-0.37 0.90668 -0.69 1.24 s-0.73666 0.58 -1.25 0.74 s-1.1433 0.24 -1.89 0.24 z M128.20000000000005 8.76 c0 -0.33334 -0.04664 -0.67338 -0.13998 -1.02 s-0.24668 -0.66332 -0.46002 -0.94998 s-0.49668 -0.52 -0.85002 -0.7 s-0.79 -0.27 -1.31 -0.27 c-0.57334 0 -1.05 0.08 -1.43 0.24 s-0.68 0.38334 -0.9 0.67 s-0.37666 0.62332 -0.47 1.01 s-0.14 0.80666 -0.14 1.26 l0 7.1 c0 0.34666 0.04 0.7 0.12 1.06 s0.22334 0.69 0.43 0.99 s0.48666 0.54666 0.84 0.74 s0.79668 0.29 1.33 0.29 c0.57334 0 1.05 -0.07666 1.43 -0.23 s0.68334 -0.36334 0.91 -0.63 s0.39 -0.58332 0.49 -0.94998 s0.15 -0.76332 0.15 -1.19 l0 -7.42 z M131.78000000000003 6.140000000000001 l0 6.06 l6.02 0 l0 1.06 l-6.02 0 l0 6.74 l-1.16 0 l0 -15 l7.28 0 l0 1.14 l-6.12 0 z M147.32000000000005 13.14 l0 6.86 l-1.08 0 l0 -6.86 l-3.62 -8.14 l1.24 0 l2.9 6.94 l2.94 -6.94 l1.24 0 z M155.20000000000005 20.18 c-2.52 0 -3.78 -1.32 -3.78 -3.96 l0 -7.4 c0 -1.3333 0.31666 -2.3266 0.95 -2.98 s1.6567 -0.98 3.07 -0.98 c1.2933 0 2.25 0.33 2.87 0.99 s0.93 1.6367 0.93 2.93 l0 7.44 c0 0.66666 -0.07 1.2467 -0.21 1.74 s-0.37 0.90668 -0.69 1.24 s-0.73666 0.58 -1.25 0.74 s-1.1433 0.24 -1.89 0.24 z M158.18000000000004 8.76 c0 -0.33334 -0.04664 -0.67338 -0.13998 -1.02 s-0.24668 -0.66332 -0.46002 -0.94998 s-0.49668 -0.52 -0.85002 -0.7 s-0.79 -0.27 -1.31 -0.27 c-0.57334 0 -1.05 0.08 -1.43 0.24 s-0.68 0.38334 -0.9 0.67 s-0.37666 0.62332 -0.47 1.01 s-0.14 0.80666 -0.14 1.26 l0 7.1 c0 0.34666 0.04 0.7 0.12 1.06 s0.22334 0.69 0.43 0.99 s0.48666 0.54666 0.84 0.74 s0.79668 0.29 1.33 0.29 c0.57334 0 1.05 -0.07666 1.43 -0.23 s0.68334 -0.36334 0.91 -0.63 s0.39 -0.58332 0.49 -0.94998 s0.15 -0.76332 0.15 -1.19 l0 -7.42 z M164.88000000000008 20.18 c-1.2267 0 -2.1768 -0.33336 -2.85 -1 s-1.01 -1.6533 -1.01 -2.96 l0 -11.22 l1.08 0 l0 11.16 c0 0.32 0.04334 0.65666 0.13 1.01 s0.23666 0.67334 0.45 0.96 s0.49668 0.52332 0.85002 0.70998 s0.79 0.28 1.31 0.28 c0.57334 0 1.0467 -0.08334 1.42 -0.25 s0.67334 -0.39666 0.9 -0.69 s0.38666 -0.64 0.48 -1.04 s0.14 -0.82666 0.14 -1.28 l0 -10.86 l1.06 0 l0 11.22 c0 1.3333 -0.32334 2.3266 -0.97 2.98 s-1.6433 0.98 -2.99 0.98 z M178.04000000000008 20 l-3.3 -6.22 l-3.06 0 l0 6.22 l-0.98 0 l0 -15 l3.4 0 c0.78666 0 1.46 0.11666 2.02 0.35 s1.02 0.55 1.38 0.95 s0.62666 0.86334 0.8 1.39 s0.26 1.0767 0.26 1.65 c0 0.97334 -0.25 1.85 -0.75 2.63 s-1.1567 1.35 -1.97 1.71 l3.52 6.32 l-1.32 0 z M173.96000000000006 5.92 l-2.28 -0.000019531 l0 6.84 l2.42 0 c0.68 0 1.24 -0.10334 1.68 -0.31 s0.78334 -0.47332 1.03 -0.79998 s0.42 -0.7 0.52 -1.12 s0.15 -0.85 0.15 -1.29 c0 -0.46666 -0.08 -0.9 -0.24 -1.3 s-0.39 -0.75 -0.69 -1.05 s-0.66666 -0.53666 -1.1 -0.71 s-0.93 -0.26 -1.49 -0.26 z M185.00000000000006 6.140000000000001 l0 6.06 l6.02 0 l0 1.06 l-6.02 0 l0 6.74 l-1.16 0 l0 -15 l7.28 0 l0 1.14 l-6.12 0 z M192.2800000000001 20 l0 -15 l1.28 0 l0 15 l-1.28 0 z M202.4000000000001 20 l-5.8 -12.88 l0 12.88 l-1.1 0 l0 -15 l1.18 0 l5.8 12.3 l0.14 -12.3 l1.08 0 l0 15 l-1.3 0 z M209.0200000000001 20.18 c-1.2667 0 -2.2134 -0.33334 -2.84 -1 s-0.94 -1.6533 -0.94 -2.96 l0 -7.4 c0 -1.3333 0.31334 -2.3266 0.94 -2.98 s1.64 -0.98 3.04 -0.98 c1.32 0 2.2866 0.33 2.9 0.99 s0.92 1.6367 0.92 2.93 l0 1.08 l-1.08 0 l0 -1.28 c0 -0.33334 -0.04 -0.67 -0.12 -1.01 s-0.22334 -0.65 -0.43 -0.93 s-0.49 -0.50666 -0.85 -0.68 s-0.82 -0.26 -1.38 -0.26 s-1.0233 0.07666 -1.39 0.23 s-0.66 0.37 -0.88 0.65 s-0.37666 0.61 -0.47 0.99 s-0.14 0.79666 -0.14 1.25 l0 7.48 c0 0.46666 0.04666 0.88332 0.14 1.25 s0.25 0.67666 0.47 0.93 s0.50666 0.44668 0.86 0.58002 s0.78334 0.2 1.29 0.2 c0.56 0 1.0267 -0.07 1.4 -0.21 s0.67334 -0.33666 0.9 -0.59 s0.39 -0.56 0.49 -0.92 s0.15 -0.75334 0.15 -1.18 l0 -2.94 l-3.14 -0.02 l0 -0.98 l4.18 0.02 l0 3.78 c0 1.32 -0.30666 2.31 -0.92 2.97 s-1.6467 0.99 -3.1 0.99 z M214.4400000000001 20 l0 -15 l7.36 0 l0 1.16 l-6.32 0 l0 5.7 l6.26 0 l0 0.92 l-6.26 0 l0 6.06 l6.46 0 l0 1.16 l-7.5 0 z M230.3800000000001 20 l-3.3 -6.22 l-3.06 0 l0 6.22 l-0.98 0 l0 -15 l3.4 0 c0.78666 0 1.46 0.11666 2.02 0.35 s1.02 0.55 1.38 0.95 s0.62666 0.86334 0.8 1.39 s0.26 1.0767 0.26 1.65 c0 0.97334 -0.25 1.85 -0.75 2.63 s-1.1567 1.35 -1.97 1.71 l3.52 6.32 l-1.32 0 z M226.3000000000001 5.92 l-2.28 -0.000019531 l0 6.84 l2.42 0 c0.68 0 1.24 -0.10334 1.68 -0.31 s0.78334 -0.47332 1.03 -0.79998 s0.42 -0.7 0.52 -1.12 s0.15 -0.85 0.15 -1.29 c0 -0.46666 -0.08 -0.9 -0.24 -1.3 s-0.39 -0.75 -0.69 -1.05 s-0.66666 -0.53666 -1.1 -0.71 s-0.93 -0.26 -1.49 -0.26 z"></path></g><g id="SvgjsG1945" featureKey="nameLeftFeature-0" transform="matrix(2.2791575244065143,0,0,2.2791575244065143,118.58126371339023,0.19679494275787768)" fill="#ffffc2"><path d="M7.24 9.1 c0 -0.5 -0.44 -0.84 -0.98 -0.84 c-0.56 0 -1.02 0.34 -1.02 0.84 l0 0.26 c0 0.48 0.46 0.9 1.02 0.9 c2.7 0 4.74 2.1 4.74 4.9 l0 0.24 c0 2.54 -1.86 4.86 -4.74 4.86 c-2.7 0 -4.76 -2.1 -4.76 -4.86 l0 -0.5 l3.5 0 l0 0.5 c0 0.74 0.54 1.34 1.26 1.34 c0.68 0 1.24 -0.6 1.24 -1.34 l0 -0.24 c0 -0.82 -0.56 -1.42 -1.24 -1.42 c-2.56 0 -4.5 -1.88 -4.5 -4.38 l0 -0.26 c0 -2.5 1.94 -4.36 4.5 -4.36 c2.54 0 4.5 1.86 4.5 4.36 l0 0.5 l-3.52 0 l0 -0.5 z M3.5 15.4 c0 1.6 1.2 2.84 2.76 2.84 c1.54 0 2.74 -1.24 2.74 -2.84 l0 -0.24 c0 -1.66 -1.2 -2.92 -2.74 -2.92 c-1.72 0 -3 -1.24 -3 -2.88 l0 -0.26 c0 -1.6 1.28 -2.86 3 -2.86 c1.68 0 3 1.26 3 2.86 l0.98 0 c0 -2.2 -1.7 -3.84 -3.98 -3.84 c-2.32 0 -4.02 1.64 -4.02 3.84 l0 0.26 c0 2.2 1.7 3.9 4.02 3.9 c0.98 0 1.74 0.78 1.74 1.9 l0 0.24 c0 1.04 -0.76 1.86 -1.74 1.86 c-1.02 0 -1.76 -0.82 -1.76 -1.86 l-1 0 z M6.26 7.74 c0.84 0 1.5 0.6 1.5 1.36 l0.98 0 c0 -1.36 -1.1 -2.34 -2.48 -2.34 c-0.56 0 -1.26 0.24 -1.66 0.54 l0.76 0.7 c0.18 -0.14 0.54 -0.26 0.9 -0.26 z M4.76 9.1 c0 -0.16 0.08 -0.46 0.24 -0.7 l-0.76 -0.74 c-0.3 0.34 -0.5 0.98 -0.5 1.44 l0 0.26 c0 1.34 1.1 2.4 2.52 2.4 c1.84 0 3.24 1.44 3.24 3.4 l0 0.24 c0 0.66 -0.4 1.64 -0.9 2.3 l0.74 0.7 c0.66 -0.8 1.16 -1.84 1.16 -3 l0 -0.24 c0 -2.5 -1.84 -4.42 -4.24 -4.42 c-0.86 0 -1.5 -0.6 -1.5 -1.38 l0 -0.26 z M2 15.4 c0 2.5 1.86 4.34 4.26 4.34 c0.94 0 2.1 -0.38 2.74 -0.94 l-0.76 -0.74 c-0.44 0.4 -1.3 0.7 -1.98 0.7 c-1.86 0 -3.26 -1.46 -3.26 -3.36 l-1 0 z M19 4.74 c3 0 5 2.22 5 5.52 l0 4.5 c0 3.3 -2 5.5 -5 5.5 s-5 -2.2 -5 -5.5 l0 -4.5 c0 -3.3 2 -5.52 5 -5.52 z M23.5 10.26 c0 -3 -1.8 -5 -4.5 -5 s-4.5 2 -4.5 5 l0 4.5 c0 3 1.8 4.98 4.5 4.98 c1.2 0 2.24 -0.38 3 -1.14 l-0.7 -0.7 c-0.6 0.56 -1.4 0.86 -2.3 0.86 c-2.1 0 -3.5 -1.6 -3.5 -4 l0 -4.5 c0 -2.4 1.4 -4.02 3.5 -4.02 s3.5 1.62 3.5 4.02 l0 4.5 c0 1.14 -0.3 2.1 -0.86 2.8 l0.76 0.68 c0.7 -0.9 1.1 -2.1 1.1 -3.48 l0 -4.5 z M16.6 7.960000000000001 c-0.4 0.6 -0.6 1.4 -0.6 2.3 l0 4.5 c0 2.1 1.2 3.48 3 3.48 s3 -1.38 3 -3.48 l0 -4.5 c0 -2.1 -1.2 -3.5 -3 -3.5 c-0.84 0 -1.56 0.3 -2.04 0.84 l0.74 0.7 c0.3 -0.34 0.76 -0.56 1.3 -0.56 c1.2 0 2 1.02 2 2.52 l0 4.5 c0 1.5 -0.8 2.5 -2 2.5 s-2 -1 -2 -2.5 l0 -4.5 c0 -0.6 0.14 -1.16 0.34 -1.56 z M17.5 14.76 c0 1.2 0.6 1.98 1.5 1.98 s1.5 -0.78 1.5 -1.98 l0 -4.5 c0 -1.2 -0.6 -2 -1.5 -2 s-1.5 0.8 -1.5 2 l0 4.5 z M37.24 14.76 c0 3.3 -2 5.5 -5 5.5 s-4.98 -2.2 -4.98 -5.5 l0 -9.76 l3.48 0 l0 9.76 c0 1.2 0.6 1.98 1.5 1.98 s1.5 -0.78 1.5 -1.98 l0 -9.76 l3.5 0 l0 9.76 z M27.740000000000002 14.76 c0 3 1.8 4.98 4.5 4.98 c1.2 0 2.26 -0.38 3 -1.08 l-0.74 -0.76 c-0.56 0.56 -1.36 0.86 -2.26 0.86 c-2.1 0 -3.48 -1.6 -3.48 -4 l0 -9.26 l-1.02 0 l0 9.26 z M29.240000000000002 14.76 c0 2.1 1.2 3.48 3 3.48 s3 -1.38 3 -3.48 l0 -9.26 l-1 0 l0 9.26 c0 1.5 -0.8 2.5 -2 2.5 s-1.98 -1 -1.98 -2.5 l0 -9.26 l-1.02 0 l0 9.26 z M35.74 14.76 c0 1.14 -0.3 2.1 -0.9 2.8 l0.76 0.68 c0.74 -0.84 1.14 -2.04 1.14 -3.48 l0 -9.26 l-1 0 l0 9.26 z M44.5 20 l-3.5 0 l0 -15 l2.5 0 l3.5 6.2 l0 -6.2 l3.5 0 l0 15 l-2.5 0 l-3.5 -6.2 l0 6.2 z M42.5 9.24 l5.76 10.26 l1.14 0 l-7.9 -14 l0 14 l1 0 l0 -10.26 z M42.1 5.5 l7.9 14 l0 -14 l-1 0 l0 10.26 l-5.76 -10.26 l-1.14 0 z M47.5 12.059999999999999 l1 1.74 l0 -8.3 l-1 0 l0 6.56 z M44 12.9 l-1 -1.74 l0 8.34 l1 0 l0 -6.6 z"></path></g><g id="SvgjsG1946" featureKey="nameRightFeature-0" transform="matrix(2.3581683881403075,0,0,2.3581683881403075,241.28366322371937,-0.7908419407015366)" fill="#ffffc2"><path d="M6.74 5 c3 0 5 2.2 5 5.5 l0 4 c0 3.3 -2 5.5 -5 5.5 l-4.74 0 l0 -15 l4.74 0 z M11.24 10.5 c0 -3 -1.8 -5 -4.5 -5 l-4.24 0 l0 12.5 l4.24 0 c1.8 0 3 -1.4 3 -3.5 l0 -4 c0 -2.1 -1.2 -3.5 -3 -3.5 l-2.4 0 l1.02 1 l1.38 0 c1.2 0 2 1 2 2.5 l0 4 c0 1.5 -0.8 2.5 -2 2.5 l-3.24 0 l0 -10.5 l3.24 0 c2.1 0 3.5 1.6 3.5 4 l0 4 c0 1.1 -0.3 2 -0.8 2.7 l0.76 0.7 c0.64 -0.86 1.04 -2 1.04 -3.4 l0 -4 z M4 16.5 l1 0 l0 -8.1 l-1 -1.04 l0 9.14 z M6.74 16.5 c0.9 0 1.5 -0.8 1.5 -2 l0 -4 c0 -1.2 -0.6 -2 -1.5 -2 l-1.24 0 l0 8 l1.24 0 z M6.74 19.5 c1.26 0 2.3 -0.44 3.12 -1.2 l-0.76 -0.74 c-0.6 0.6 -1.4 0.94 -2.36 0.94 l-4.24 0 l0 1 l4.24 0 z M20.240000000000002 5 c3 0 5 2 5 5 s-2 5 -5 5 l-1.5 0 l0 5 l-3.5 0 l0 -15 l5 0 z M20.240000000000002 13 c1.8 0 3 -1.2 3 -3 s-1.2 -3 -3 -3 l-2.66 0 l1.06 1 l1.6 0 c1.2 0 2 0.8 2 2 s-0.8 2 -2 2 l-3.5 0 l0 -5.5 l3.5 0 c2.1 0 3.5 1.4 3.5 3.5 c0 0.96 -0.3 1.76 -0.8 2.36 l0.76 0.7 c0.64 -0.76 1.04 -1.8 1.04 -3.06 c0 -2.7 -1.8 -4.5 -4.5 -4.5 l-4.5 0 l0 14 l1 0 l0 -6.5 l3.5 0 z M17.240000000000002 11.5 l1 0 l0 -3.16 l-1 -0.98 l0 4.14 z M20.240000000000002 11.5 c0.9 0 1.5 -0.6 1.5 -1.5 s-0.6 -1.5 -1.5 -1.5 l-1.5 0 l0 3 l1.5 0 z M20.240000000000002 14.5 c1.24 0 2.3 -0.4 3.1 -1.06 l-0.76 -0.74 c-0.6 0.5 -1.4 0.8 -2.34 0.8 l-2.66 0 l1.06 1 l1.6 0 z M18.240000000000002 19.5 l0 -4.64 l-1 -1 l0 5.64 l1 0 z M30.880000000000003 17.759999999999998 l-0.74 2.24 l-3.64 0 l4.98 -15 l2.26 0 l5 15 l-3.66 0 l-0.78 -2.24 l-3.42 0 z M29.840000000000003 14.76 l3.04 -9.26 l-1.04 0 l-4.66 14 l1.06 0 l1.26 -3.74 l4.14 0 l-0.36 -1 l-3.44 0 z M33.400000000000006 8.7 l3.6 10.8 l1.04 0 l-4.6 -14 l-2.96 8.76 l1.06 0 z M30.180000000000003 16.259999999999998 l0.7 1 l3.76 0 l0.74 2.24 l1.1 0 l-3.08 -9.24 l-0.52 1.54 l1.46 4.46 l-4.16 0 z M32.58 12.66 l-0.54 1.6 l1.1 0 z M30.44 17.5 l-0.64 -1 l-1.06 3 l1.06 0 z M45.720000000000006 5 c3 0 5 2.2 5 5.5 l0 4 c0 3.3 -2 5.5 -5 5.5 l-4.74 0 l0 -15 l4.74 0 z M50.220000000000006 10.5 c0 -3 -1.8 -5 -4.5 -5 l-4.24 0 l0 12.5 l4.24 0 c1.8 0 3 -1.4 3 -3.5 l0 -4 c0 -2.1 -1.2 -3.5 -3 -3.5 l-2.4 0 l1.02 1 l1.38 0 c1.2 0 2 1 2 2.5 l0 4 c0 1.5 -0.8 2.5 -2 2.5 l-3.24 0 l0 -10.5 l3.24 0 c2.1 0 3.5 1.6 3.5 4 l0 4 c0 1.1 -0.3 2 -0.8 2.7 l0.76 0.7 c0.64 -0.86 1.04 -2 1.04 -3.4 l0 -4 z M42.980000000000004 16.5 l1 0 l0 -8.1 l-1 -1.04 l0 9.14 z M45.720000000000006 16.5 c0.9 0 1.5 -0.8 1.5 -2 l0 -4 c0 -1.2 -0.6 -2 -1.5 -2 l-1.24 0 l0 8 l1.24 0 z M45.720000000000006 19.5 c1.26 0 2.3 -0.44 3.12 -1.2 l-0.76 -0.74 c-0.6 0.6 -1.4 0.94 -2.36 0.94 l-4.24 0 l0 1 l4.24 0 z"></path></g>
			</g>
		</svg>
	